<svg width="32" height="32" viewBox="0 0 32 32" fill="none" xmlns="http://www.w3.org/2000/svg">
<path d="M30 14H2C0.895437 14 0 14.8954 0 16C0 17.1046 0.895437 18 2 18H30C31.1046 18 32 17.1046 32 16C32 14.8954 31.1046 14 30 14Z" fill="#B0B8C1"/>
<path d="M2 8.66669H30C31.1046 8.66669 32 7.77125 32 6.66669C32 5.56212 31.1046 4.66669 30 4.66669H2C0.895437 4.66669 0 5.56212 0 6.66669C0 7.77125 0.895437 8.66669 2 8.66669Z" fill="#B0B8C1"/>
<path d="M30 23.3333H2C0.895437 23.3333 0 24.2288 0 25.3333C0 26.4379 0.895437 27.3333 2 27.3333H30C31.1046 27.3333 32 26.4379 32 25.3333C32 24.2288 31.1046 23.3333 30 23.3333Z" fill="#B0B8C1"/>
</svg>
