<svg width="34" height="37" viewBox="0 0 34 37" fill="none" xmlns="http://www.w3.org/2000/svg">
<path d="M24.0834 18.29C24.0834 18.29 24.0834 18.1986 24.0834 18.1528C24.0769 18.0065 24.0482 17.8624 23.9984 17.7261C23.9605 17.6215 23.9079 17.5239 23.8425 17.4365C23.8049 17.3669 23.7623 17.3006 23.715 17.2383L19.6634 12.6657C19.535 12.5206 19.3813 12.4041 19.2111 12.3229C19.0409 12.2417 18.8575 12.1973 18.6713 12.1924C18.2954 12.1824 17.9312 12.3334 17.6588 12.6124C17.3864 12.8913 17.2281 13.2752 17.2188 13.6797C17.2095 14.0842 17.3499 14.476 17.6092 14.7691L19.3517 16.7658H11.3334C10.9576 16.7658 10.5973 16.9264 10.3316 17.2122C10.0659 17.4981 9.91669 17.8858 9.91669 18.29C9.91669 18.6943 10.0659 19.0819 10.3316 19.3678C10.5973 19.6536 10.9576 19.8142 11.3334 19.8142H19.2525L17.4109 21.7804C17.2781 21.9221 17.1727 22.0907 17.1008 22.2765C17.0288 22.4622 16.9918 22.6614 16.9918 22.8626C16.9918 23.0638 17.0288 23.2631 17.1008 23.4488C17.1727 23.6345 17.2781 23.8031 17.4109 23.9448C17.5426 24.0877 17.6992 24.2011 17.8719 24.2784C18.0445 24.3558 18.2297 24.3957 18.4167 24.3957C18.6037 24.3957 18.7889 24.3558 18.9615 24.2784C19.1341 24.2011 19.2908 24.0877 19.4225 23.9448L23.6725 19.3722C23.7999 19.2317 23.901 19.0661 23.97 18.8845C24.0444 18.6965 24.083 18.4943 24.0834 18.29Z" fill="#231F20"/>
<path d="M17 3.04834C14.1981 3.04834 11.4591 3.94227 9.12944 5.61708C6.79974 7.2919 4.98396 9.67238 3.91172 12.4575C2.83948 15.2426 2.55893 18.3073 3.10556 21.2639C3.65218 24.2206 5.00143 26.9365 6.98267 29.0681C8.96391 31.1997 11.4882 32.6514 14.2362 33.2395C16.9843 33.8276 19.8327 33.5258 22.4214 32.3722C25.01 31.2185 27.2225 29.2649 28.7792 26.7584C30.3358 24.2518 31.1667 21.305 31.1667 18.2904C31.1667 16.2888 30.8003 14.3067 30.0883 12.4575C29.3764 10.6082 28.3329 8.92798 27.0174 7.51263C25.7019 6.09727 24.1401 4.97455 22.4214 4.20857C20.7026 3.44259 18.8604 3.04834 17 3.04834ZM17 30.484C14.7585 30.484 12.5673 29.7688 10.7036 28.429C8.8398 27.0891 7.38718 25.1848 6.52938 22.9567C5.67159 20.7286 5.44715 18.2768 5.88445 15.9115C6.32175 13.5462 7.40114 11.3735 8.98614 9.66817C10.5711 7.96286 12.5905 6.80154 14.789 6.33104C16.9874 5.86055 19.2662 6.10202 21.3371 7.02493C23.408 7.94783 25.178 9.51072 26.4233 11.516C27.6687 13.5212 28.3333 15.8787 28.3333 18.2904C28.3333 21.5243 27.1393 24.6258 25.0139 26.9126C22.8885 29.1993 20.0058 30.484 17 30.484Z" fill="#231F20"/>
</svg>
